<?xml version="1.0" encoding="utf-8"?>
<!-- Generator: Adobe Illustrator 16.0.4, SVG Export Plug-In . SVG Version: 6.00 Build 0)  -->
<!DOCTYPE svg PUBLIC "-//W3C//DTD SVG 1.1//EN" "http://www.w3.org/Graphics/SVG/1.1/DTD/svg11.dtd">
<svg version="1.1" id="Layer_1" xmlns="http://www.w3.org/2000/svg" xmlns:xlink="http://www.w3.org/1999/xlink" x="0px" y="0px"
	 width="56px" height="27px" viewBox="0 0 56 27" enable-background="new 0 0 56 27" xml:space="preserve">
<rect y="12.5" width="56" height="2"/>
<g>
	<g>
		<path d="M28,3c5.79,0,10.5,4.71,10.5,10.5C38.5,19.29,33.79,24,28,24s-10.5-4.71-10.5-10.5C17.5,7.71,22.21,3,28,3 M28,0
			c-7.456,0-13.5,6.044-13.5,13.5S20.544,27,28,27s13.5-6.044,13.5-13.5S35.456,0,28,0L28,0z"/>
	</g>
	<g>
		<circle cx="20" cy="15" r="1.5"/>
		<circle cx="24" cy="15" r="1.5"/>
		<circle cx="28" cy="15" r="1.5"/>
		<circle cx="32" cy="15" r="1.5"/>
		<circle cx="36" cy="15" r="1.5"/>
	</g>
	<g>
		<circle cx="20" cy="21" r="1.5"/>
		<circle cx="24" cy="21" r="1.5"/>
		<circle cx="28" cy="21" r="1.5"/>
		<circle cx="32" cy="21" r="1.5"/>
		<circle cx="36" cy="21" r="1.5"/>
	</g>
	<g>
		<circle cx="18" cy="18" r="1.5"/>
		<circle cx="22" cy="18" r="1.5"/>
		<circle cx="26" cy="18" r="1.5"/>
		<circle cx="30" cy="18" r="1.5"/>
		<circle cx="34" cy="18" r="1.5"/>
		<circle cx="38" cy="18" r="1.5"/>
	</g>
	<g>
		<path d="M20.5,24c0-0.829,0.671-1.5,1.5-1.5s1.5,0.671,1.5,1.5s-0.671,1.5-1.5,1.5"/>
		<circle cx="26" cy="24" r="1.5"/>
		<circle cx="30" cy="24" r="1.5"/>
	</g>
</g>
</svg>
