<?xml version="1.0" encoding="utf-8"?>
<!-- Generator: Adobe Illustrator 17.1.0, SVG Export Plug-In . SVG Version: 6.00 Build 0)  -->
<!DOCTYPE svg PUBLIC "-//W3C//DTD SVG 1.1//EN" "http://www.w3.org/Graphics/SVG/1.1/DTD/svg11.dtd">
<svg version="1.1" id="Layer_1" xmlns="http://www.w3.org/2000/svg" xmlns:xlink="http://www.w3.org/1999/xlink" x="0px" y="0px"
	 viewBox="0 0 56 27" enable-background="new 0 0 56 27" xml:space="preserve">
<g>
	<g>
		<path fill="#FFFFFF" d="M28,3c5.8,0,10.5,4.7,10.5,10.5S33.8,24,28,24s-10.5-4.7-10.5-10.5S22.2,3,28,3 M28,0
			c-7.5,0-13.5,6-13.5,13.5S20.5,27,28,27s13.5-6,13.5-13.5S35.5,0,28,0L28,0z"/>
	</g>
	<g>
		<circle fill="#FFFFFF" cx="20" cy="15" r="1.5"/>
		<circle fill="#FFFFFF" cx="24" cy="15" r="1.5"/>
		<circle fill="#FFFFFF" cx="28" cy="15" r="1.5"/>
		<circle fill="#FFFFFF" cx="32" cy="15" r="1.5"/>
		<circle fill="#FFFFFF" cx="36" cy="15" r="1.5"/>
	</g>
	<g>
		<circle fill="#FFFFFF" cx="20" cy="21" r="1.5"/>
		<circle fill="#FFFFFF" cx="24" cy="21" r="1.5"/>
		<circle fill="#FFFFFF" cx="28" cy="21" r="1.5"/>
		<circle fill="#FFFFFF" cx="32" cy="21" r="1.5"/>
		<circle fill="#FFFFFF" cx="36" cy="21" r="1.5"/>
	</g>
	<g>
		<circle fill="#FFFFFF" cx="18" cy="18" r="1.5"/>
		<circle fill="#FFFFFF" cx="22" cy="18" r="1.5"/>
		<circle fill="#FFFFFF" cx="26" cy="18" r="1.5"/>
		<circle fill="#FFFFFF" cx="30" cy="18" r="1.5"/>
		<circle fill="#FFFFFF" cx="34" cy="18" r="1.5"/>
		<circle fill="#FFFFFF" cx="38" cy="18" r="1.5"/>
	</g>
	<g>
		<path fill="#FFFFFF" d="M20.5,24c0-0.8,0.7-1.5,1.5-1.5s1.5,0.7,1.5,1.5s-0.7,1.5-1.5,1.5"/>
		<circle fill="#FFFFFF" cx="26" cy="24" r="1.5"/>
		<circle fill="#FFFFFF" cx="30" cy="24" r="1.5"/>
	</g>
</g>
</svg>
