<?xml version="1.0" encoding="utf-8"?>
<!-- Generator: Adobe Illustrator 17.1.0, SVG Export Plug-In . SVG Version: 6.00 Build 0)  -->
<!DOCTYPE svg PUBLIC "-//W3C//DTD SVG 1.1//EN" "http://www.w3.org/Graphics/SVG/1.1/DTD/svg11.dtd">
<svg version="1.1" id="Layer_1" xmlns="http://www.w3.org/2000/svg" xmlns:xlink="http://www.w3.org/1999/xlink" x="0px" y="0px"
	 width="203.9px" height="12.8px" viewBox="0 0 203.9 12.8" enable-background="new 0 0 203.9 12.8" xml:space="preserve">
<line fill="none" stroke="#000000" stroke-width="2" stroke-miterlimit="10" x1="0" y1="6.9" x2="54" y2="6.9"/>
<line fill="none" stroke="#000000" stroke-width="2" stroke-miterlimit="10" x1="150" y1="6.9" x2="194" y2="6.9"/>
<g>
	<path d="M69.9,11c-0.4,0-0.7,0-1-0.1c-0.3-0.1-0.6-0.2-0.9-0.3s-0.5-0.4-0.7-0.6S67.1,9.4,66.9,9l1.5-0.4c0.1,0.2,0.1,0.4,0.2,0.5
		c0.1,0.1,0.2,0.2,0.4,0.3c0.1,0.1,0.3,0.1,0.5,0.1c0.2,0,0.3,0,0.5,0c0.1,0,0.3,0,0.4,0c0.1,0,0.3-0.1,0.4-0.2
		c0.1-0.1,0.2-0.2,0.3-0.3c0.1-0.1,0.1-0.3,0.1-0.4c0-0.1,0-0.2-0.1-0.3C71,8.2,71,8.1,70.9,8.1C70.8,8,70.7,8,70.6,7.9
		c-0.1,0-0.2-0.1-0.3-0.1c-0.4-0.1-0.7-0.2-1.1-0.3c-0.4-0.1-0.7-0.2-1-0.4c-0.3-0.2-0.5-0.4-0.7-0.7c-0.2-0.3-0.3-0.7-0.3-1.1
		c0-0.4,0.1-0.7,0.2-1c0.2-0.3,0.4-0.5,0.6-0.7c0.3-0.2,0.6-0.3,0.9-0.4C69.3,3,69.7,3,70,3c0.4,0,0.7,0,1,0.1
		c0.3,0.1,0.6,0.1,0.8,0.3c0.2,0.1,0.4,0.3,0.6,0.6c0.2,0.2,0.3,0.5,0.4,0.9l-1.5,0.4c-0.1-0.2-0.1-0.3-0.2-0.4
		c-0.1-0.1-0.2-0.2-0.3-0.2s-0.2-0.1-0.3-0.1c-0.1,0-0.3,0-0.4,0c-0.1,0-0.3,0-0.4,0c-0.1,0-0.3,0.1-0.4,0.1S69.1,4.8,69,4.9
		c-0.1,0.1-0.1,0.2-0.1,0.4c0,0.2,0.1,0.4,0.3,0.5s0.4,0.2,0.7,0.3c0.3,0.1,0.6,0.2,1,0.3c0.3,0.1,0.7,0.2,1,0.4s0.5,0.4,0.7,0.7
		c0.2,0.3,0.3,0.7,0.3,1.2c0,0.4-0.1,0.8-0.2,1.1s-0.4,0.6-0.7,0.8c-0.3,0.2-0.6,0.4-0.9,0.5S70.3,11,69.9,11z"/>
	<path d="M77.3,3.1h5.4v1.4H79v1.6h3.1v1.5H79v1.8h3.9v1.4h-5.5V3.1z"/>
	<path d="M87.5,3.1h5.4v1.4h-3.8v1.6h3.1v1.5h-3.1v1.8H93v1.4h-5.5V3.1z"/>
	<path d="M109.2,7.7h-3.4v3.2h-1.7V3.1h1.7v3.1h3.4V3.1h1.7v7.7h-1.7V7.7z"/>
	<path d="M119.5,11c-0.6,0-1.1-0.1-1.6-0.3c-0.5-0.2-0.9-0.5-1.3-0.8s-0.7-0.8-0.9-1.3c-0.2-0.5-0.3-1-0.3-1.6
		c0-0.6,0.1-1.1,0.3-1.6c0.2-0.5,0.5-0.9,0.9-1.3s0.8-0.6,1.3-0.8c0.5-0.2,1-0.3,1.6-0.3c0.6,0,1.1,0.1,1.6,0.3
		c0.5,0.2,0.9,0.5,1.3,0.8c0.4,0.4,0.7,0.8,0.9,1.3c0.2,0.5,0.3,1,0.3,1.6c0,0.6-0.1,1.1-0.3,1.6s-0.5,0.9-0.9,1.3s-0.8,0.6-1.3,0.8
		C120.6,10.9,120,11,119.5,11z M119.5,4.5c-0.4,0-0.7,0.1-1,0.2c-0.3,0.1-0.6,0.3-0.8,0.5c-0.2,0.2-0.4,0.5-0.5,0.8
		c-0.1,0.3-0.2,0.6-0.2,1c0,0.4,0.1,0.7,0.2,1c0.1,0.3,0.3,0.6,0.5,0.8c0.2,0.2,0.5,0.4,0.8,0.5c0.3,0.1,0.6,0.2,1,0.2
		s0.7-0.1,1-0.2c0.3-0.1,0.6-0.3,0.8-0.5c0.2-0.2,0.4-0.5,0.5-0.8s0.2-0.6,0.2-1s-0.1-0.7-0.2-1s-0.3-0.6-0.5-0.8
		c-0.2-0.2-0.5-0.4-0.8-0.5C120.2,4.5,119.8,4.5,119.5,4.5z"/>
	<path d="M133.5,10.9l-1.3-4.3l-1.3,4.3h-1.4l-2.3-7.8h1.7l1.3,4.7l1.4-4.7h1.2l1.4,4.7l1.3-4.7h1.8l-2.3,7.8H133.5z"/>
</g>
<g>
	<path d="M194.8,3.5l5.1,3l-5.1,3V3.5 M192.8,0v12.8l11.1-6.4L192.8,0L192.8,0z"/>
</g>
</svg>
